<?xml version="1.0" encoding="utf-8"?>
<!-- Generator: Adobe Illustrator 16.0.0, SVG Export Plug-In . SVG Version: 6.00 Build 0)  -->
<!DOCTYPE svg PUBLIC "-//W3C//DTD SVG 1.1//EN" "http://www.w3.org/Graphics/SVG/1.1/DTD/svg11.dtd">
<svg version="1.1" id="Layer_1" xmlns="http://www.w3.org/2000/svg" xmlns:xlink="http://www.w3.org/1999/xlink" x="0px" y="0px"
	 width="568.787px" height="838.729px" viewBox="0 0 568.787 838.729" enable-background="new 0 0 568.787 838.729"
	 xml:space="preserve">
<circle fill="#ffffff" cx="285.603" cy="793.777" r="18.965"/>
<path fill="#ffffff" d="M536.989,0H31.797C14.236,0,0,14.23,0,31.784v775.161c0,17.554,14.238,31.784,31.797,31.784h505.192
	c17.563,0,31.798-14.23,31.798-31.784V31.784C568.787,14.23,554.552,0,536.989,0z M284.393,28.84c5.237,0,9.483,4.246,9.483,9.482
	c0,5.237-4.246,9.482-9.483,9.482c-5.237,0-9.482-4.245-9.482-9.482C274.911,33.085,279.156,28.84,284.393,28.84z M285.663,815.022
	c-11.723,0-21.227-9.504-21.227-21.227c0-11.724,9.503-21.229,21.227-21.229s21.226,9.506,21.226,21.229
	C306.889,805.519,297.386,815.022,285.663,815.022z M545.211,753.821H24V73.84h521.211V753.821z"/>
</svg>
