<svg xmlns="http://www.w3.org/2000/svg" width="346.652" height="513.319" viewBox="0 0 346.652 513.319"><linearGradient id="a" gradientUnits="userSpaceOnUse" x1="40.384" y1="272.3477" x2="1694.3801" y2="272.3477" gradientTransform="matrix(.2095 0 0 -.2095 -8.25 313.705)"><stop offset="0" stop-color="#939598"/><stop offset=".4944" stop-color="#F2F2F2"/><stop offset="1" stop-color="#939598"/></linearGradient><path fill="url(#a)" d="M346.653 488.059c0 14.536-10.892 25.261-25.26 25.261H25.47c-14.369 0-25.261-10.725-25.261-25.261V25.261C.209 10.724 11.101 0 25.47 0h295.923c14.368 0 25.26 10.724 25.26 25.261v462.798z"/><linearGradient id="b" gradientUnits="userSpaceOnUse" x1="1570.5569" y1="-934.6572" x2="1663.7166" y2="-906.1389" gradientTransform="matrix(.2095 0 0 -.2095 -8.25 313.705)"><stop offset="0" stop-opacity="0"/><stop offset="1" stop-color="#FFF"/></linearGradient><path fill="url(#b)" d="M338.212 501.841c-.377.439-.754.858-1.173 1.277-4.294 4.273-10.033 6.641-16.526 6.641h-17.364v3.539h17.364c8.315 0 15.458-3.372 20.317-8.943l-2.618-2.514z"/><linearGradient id="c" gradientUnits="userSpaceOnUse" x1="49.0256" y1="1389.2549" x2="85.234" y2="1460.8672" gradientTransform="matrix(.2095 0 0 -.2095 -8.25 313.705)"><stop offset="0" stop-opacity="0"/><stop offset="1" stop-color="#FFF"/></linearGradient><path fill="url(#c)" d="M3.623 26.078c0-6.577 2.451-12.463 6.808-16.778.461-.461.942-.88 1.445-1.299L9.342 5.467C3.645 10.347.063 17.532.063 26.078v.691h3.582v-.691h-.022z"/><linearGradient id="d" gradientUnits="userSpaceOnUse" x1="1580.2864" y1="1458.498" x2="1683.9856" y2="1458.498" gradientTransform="matrix(.2095 0 0 -.2095 -8.25 313.705)"><stop offset="0" stop-opacity="0"/><stop offset="1" stop-color="#FFF"/></linearGradient><path fill="url(#d)" d="M337.248 10.159c1.844 1.843 3.017 3.854 4.105 6.221l3.121-1.759C340.453 6.285 332.681.797 322.753.043v3.582c5.614.459 10.704 2.742 14.495 6.534z"/><linearGradient id="e" gradientUnits="userSpaceOnUse" x1="50.573" y1="-820.3696" x2="81.3189" y2="-916.0237" gradientTransform="matrix(.2095 0 0 -.2095 -8.25 313.705)"><stop offset="0" stop-opacity="0"/><stop offset="1" stop-color="#FFF"/></linearGradient><path fill="url(#e)" d="M3.561 487.263v-11.541H0v11.541c0 7.562 2.743 14.013 7.331 18.81l2.513-2.514c-4.042-4.294-6.283-9.95-6.283-16.296z"/><path fill="#FFF" stroke="#6E6F72" stroke-width="2.4293" stroke-miterlimit="10" d="M321.141 3.582H25.721c-6.074 0-11.646 2.199-15.667 6.221-4.043 4.021-6.263 9.614-6.263 15.73v462.274c0 6.116 2.22 11.709 6.263 15.73 4.021 4.001 9.593 6.222 15.667 6.222H321.12c6.074 0 11.646-2.2 15.667-6.222 4.043-4.021 6.263-9.613 6.263-15.73V25.533c0-6.116-2.22-11.708-6.263-15.73-4-4.001-9.572-6.221-15.646-6.221z"/><path fill="#FFF" d="M321.141 3.582H25.721c-6.074 0-11.646 2.199-15.667 6.221-4.043 4.021-6.263 9.614-6.263 15.73v462.274c0 6.116 2.22 11.709 6.263 15.73 4.021 4.001 9.593 6.222 15.667 6.222H321.12c6.074 0 11.646-2.2 15.667-6.222 4.043-4.021 6.263-9.613 6.263-15.73V25.533c0-6.116-2.22-11.708-6.263-15.73-4-4.001-9.572-6.221-15.646-6.221z"/><linearGradient id="f" gradientUnits="userSpaceOnUse" x1="1588.9905" y1="1235.3984" x2="140.1156" y2="-698.3364" gradientTransform="matrix(.2095 0 0 -.2095 -8.25 313.705)"><stop offset="0" stop-color="#D91F5D"/><stop offset="1" stop-color="#67308F"/></linearGradient><path fill="url(#f)" d="M20.527 460.955c-.209 0-.397-.189-.397-.398V52.763c0-.21.188-.398.397-.398h305.83c.23 0 .397.188.397.398v407.773c0 .229-.188.397-.397.397H20.527v.022z"/><path fill="#D2D3D4" d="M326.357 52.763v407.794H20.527V52.763h305.83m0-.797H20.527c-.439 0-.796.356-.796.796v407.794c0 .439.356.796.796.796h305.83c.439 0 .796-.356.796-.796V52.763c0-.44-.357-.797-.796-.797z"/><g><linearGradient id="g" gradientUnits="userSpaceOnUse" x1="867.384" y1="1370.0449" x2="867.384" y2="1341.3533" gradientTransform="matrix(.2095 0 0 -.2095 -8.25 313.705)"><stop offset="0"/><stop offset="1" stop-color="#231F20"/></linearGradient><path fill="url(#g)" d="M173.431 26.35c1.76 0 3.205 1.424 3.205 3.205 0 1.759-1.425 3.205-3.205 3.205-1.759 0-3.204-1.424-3.204-3.205.02-1.781 1.445-3.205 3.204-3.205z"/><path opacity=".1" fill="#F2F2F2" d="M173.431 32.571c-1.759 0-3.204-1.257-3.204-3.016 0 1.759 1.424 3.205 3.204 3.205 1.76 0 3.205-1.424 3.205-3.205 0 1.759-1.425 3.016-3.205 3.016z"/><linearGradient id="h" gradientUnits="userSpaceOnUse" x1="867.384" y1="1349.6895" x2="867.384" y2="1363.1136" gradientTransform="matrix(.2095 0 0 -.2095 -8.25 313.705)"><stop offset="0"/><stop offset="1" stop-color="#231F20"/></linearGradient><path fill="url(#h)" d="M173.431 28.067c.859 0 1.55.691 1.55 1.55s-.69 1.55-1.55 1.55c-.858 0-1.55-.691-1.55-1.55 0-.858.692-1.55 1.55-1.55z"/><radialGradient id="i" cx="867.4075" cy="1356.2773" r="5.6731" gradientTransform="matrix(.2095 0 0 -.2095 -8.25 313.705)" gradientUnits="userSpaceOnUse"><stop offset="0" stop-color="#2075BC"/><stop offset="1" stop-color="#2BACE2"/></radialGradient><path fill="url(#i)" d="M173.431 28.444c.649 0 1.194.523 1.194 1.194 0 .649-.523 1.194-1.194 1.194-.67 0-1.193-.523-1.193-1.194.02-.67.543-1.194 1.193-1.194z"/><path opacity=".5" fill="#D2E3F1" d="M173.431 28.654c.294 0 .545.083.545.188s-.23.188-.545.188c-.293 0-.544-.083-.544-.188s.251-.188.544-.188z"/></g><g><linearGradient id="j" gradientUnits="userSpaceOnUse" x1="867.4817" y1="-762.0029" x2="867.4817" y2="-881.7683" gradientTransform="matrix(.2095 0 0 -.2095 -8.25 313.705)"><stop offset="0" stop-color="#D2D3D4"/><stop offset="1" stop-color="#F2F2F2"/></linearGradient><path fill="url(#j)" d="M186.187 485.482c0 7.037-5.697 12.734-12.734 12.734-7.038 0-12.735-5.697-12.735-12.734 0-7.038 5.697-12.735 12.735-12.735 7.016 0 12.734 5.697 12.734 12.735z"/><linearGradient id="k" gradientUnits="userSpaceOnUse" x1="867.4856" y1="-890.7949" x2="867.4856" y2="-842.3533" gradientTransform="matrix(.2095 0 0 -.2095 -8.25 313.705)"><stop offset="0" stop-color="#FFF" stop-opacity="0"/><stop offset="1" stop-color="#FFF"/></linearGradient><path opacity=".5" fill="url(#k)" d="M186.187 485.482c0 7.037-5.697 12.734-12.734 12.734-7.038 0-12.735-5.697-12.735-12.734 8.629 4.419 17.824 3.268 25.469 0z"/><path fill="#FFF" d="M173.431 473.166c7.038 0 12.735 5.278 12.735 12.316 0-7.038-5.697-12.735-12.735-12.735s-12.735 5.697-12.735 12.735c0-7.038 5.697-12.316 12.735-12.316z" opacity=".1"/><g><path opacity=".1" fill="#010101" d="M175.945 490.907h-5.027c-1.257 0-2.262-1.006-2.262-2.263v-5.026c0-1.257 1.005-2.263 2.262-2.263h5.027c1.257 0 2.262 1.006 2.262 2.263v5.026c-.001 1.257-1.006 2.263-2.262 2.263zm-5.028-9.342c-1.131 0-2.053.922-2.053 2.053v5.026c0 1.132.922 2.053 2.053 2.053h5.027c1.131 0 2.053-.921 2.053-2.053v-5.026c0-1.131-.922-2.053-2.053-2.053h-5.027zm5.028 8.484h-5.027c-.774 0-1.403-.629-1.403-1.404v-5.026c0-.775.629-1.403 1.403-1.403h5.027c.775 0 1.403.628 1.403 1.403v5.026c.021.775-.608 1.404-1.403 1.404zm-5.028-7.646c-.67 0-1.193.544-1.193 1.193v5.027c0 .67.544 1.194 1.193 1.194h5.027c.67 0 1.194-.545 1.194-1.194v-5.027c0-.67-.545-1.193-1.194-1.193h-5.027z"/><path fill="#FFF" d="M175.945 482.299c.712 0 1.299.586 1.299 1.298v5.027c0 .712-.587 1.299-1.299 1.299h-5.027c-.712 0-1.298-.587-1.298-1.299v-5.027c0-.712.586-1.298 1.298-1.298h5.027m0-.838h-5.027c-1.193 0-2.157.963-2.157 2.157v5.026c0 1.194.964 2.158 2.157 2.158h5.027c1.194 0 2.157-.964 2.157-2.158v-5.026c0-1.194-.963-2.157-2.157-2.157z"/></g></g></svg>