<?xml version="1.0" encoding="utf-8"?>
<!-- Generator: Adobe Illustrator 16.0.0, SVG Export Plug-In . SVG Version: 6.00 Build 0)  -->
<!DOCTYPE svg PUBLIC "-//W3C//DTD SVG 1.1//EN" "http://www.w3.org/Graphics/SVG/1.1/DTD/svg11.dtd">
<svg version="1.1" id="Layer_1" xmlns:sketch="http://www.bohemiancoding.com/sketch/ns"
	 xmlns="http://www.w3.org/2000/svg" xmlns:xlink="http://www.w3.org/1999/xlink" x="0px" y="0px" width="497px" height="1014px"
	 viewBox="0 0 497 1014" enable-background="new 0 0 497 1014" xml:space="preserve">
<title>Apple iPhone 6</title>
<desc>Created with Sketch Beta.</desc>
<g id="Page-1" sketch:type="MSPage">
	<g>
		<path fill="#ffffff" d="M495.501,215H494V75c0-41.421-33.58-75-75.007-75H78.006C36.581,0,3,33.575,3,75v53H1.498
			C0.671,128,0,128.677,0,129.508v37.984C0,168.325,0.665,169,1.498,169H3v46H1.498C0.671,215,0,215.671,0,216.498v72.004
			C0,289.329,0.665,290,1.498,290H3v17H1.498C0.671,307,0,307.671,0,308.498v72.004C0,381.329,0.665,382,1.498,382H3v557.001
			C3,980.422,36.579,1014,78.006,1014h340.987c41.425,0,75.007-33.575,75.007-74.999V290h1.501c0.827,0,1.499-0.671,1.499-1.498
			v-72.004C497,215.671,496.334,215,495.501,215z M249,27c2.761,0,5,2.239,5,5s-2.239,5-5,5c-2.762,0-5-2.239-5-5S246.239,27,249,27
			z M212.994,60h72.011c2.212,0,3.995,1.791,3.995,4c0,2.205-1.789,4-3.995,4h-72.011c-2.211,0-3.994-1.791-3.994-4
			C209,61.795,210.788,60,212.994,60z M170,56c4.418,0,8,3.582,8,8s-3.582,8-8,8c-4.419,0-8-3.582-8-8S165.581,56,170,56z M248,983
			c-20.987,0-38-17.014-38-38s17.013-38,38-38c20.986,0,38,17.014,38,38S268.987,983,248,983z M464,889H33V123h431V889z"/>
		<circle fill="#ffffff" cx="248" cy="945" r="34"/>
	</g>
</g>
</svg>
