<svg xmlns="http://www.w3.org/2000/svg" width="400.261" height="841.891" viewBox="97.51 0 400.261 841.891"><path fill="#FEEF6E" d="M4206.329 3983.242v721.049c0 14.631 5.368 29.21 14.685 39.947 8.157 9.421 23.42 20.578 49.895 20.578h270.892c26.473 0 41.736-11.211 49.895-20.578 9.315-10.737 14.684-25.316 14.684-39.947v-721.102c0-14.632-5.368-29.211-14.684-39.947-8.158-9.421-23.422-20.579-49.895-20.579h-270.892c-26.474 0-41.736 11.21-49.895 20.579-9.317 10.789-14.685 25.368-14.685 40z"/><path fill="#EDDA6B" d="M4610.012 4102.82v53.895c0 .578-.842 1.473-1.475 1.473h-2.21v-56.842h2.053c.632 0 1.632.894 1.632 1.474zM4273.697 3920.663v2.263h64.21v-2.263c0-.896-1.053-1.947-1.895-1.947h-60.315c-.947 0-2 1.053-2 1.947zM4610.012 4180.715v53.894c0 .579-.842 1.474-1.475 1.474h-2.21v-56.842h2.053c.632-.001 1.632.894 1.632 1.474zM4608.326 4077.136h-1.999v-36.842h1.999c.633 0 1.105.474 1.105 1.053v34.736c.053.579-.472 1.053-1.105 1.053z"/><path opacity=".5" fill="#FFF" d="M4284.908 3975.662c0 12.316-10 22.316-22.316 22.316-12.315 0-22.315-10-22.315-22.316 0-12.315 10-22.315 22.315-22.315 12.369 0 22.316 10 22.316 22.315z"/><linearGradient id="a" gradientUnits="userSpaceOnUse" x1="7929.5547" y1="-6627.0469" x2="7929.5547" y2="-6702.6621" gradientTransform="matrix(.5263 0 0 -.5263 89.216 467.364)"><stop offset="0" stop-color="#010101"/><stop offset=".9865" stop-color="#231F20"/></linearGradient><path fill="url(#a)" d="M4283.381 3975.662c0 11.475-9.263 20.737-20.736 20.737s-20.736-9.263-20.736-20.737c0-11.473 9.264-20.736 20.736-20.736 11.42 0 20.736 9.263 20.736 20.736z"/><path fill="#3B3E42" d="M4278.171 3975.662c0 8.579-6.948 15.527-15.526 15.527s-15.526-6.948-15.526-15.527c0-8.578 6.948-15.525 15.526-15.525 8.579 0 15.526 6.947 15.526 15.525z"/><path fill="#231F20" d="M4272.697 3975.662c0 5.58-4.526 10.053-10.053 10.053-5.579 0-10.053-4.525-10.053-10.053 0-5.578 4.526-10.052 10.053-10.052s10.053 4.474 10.053 10.052z"/><linearGradient id="b" gradientUnits="userSpaceOnUse" x1="-16262.5029" y1="-6665.8047" x2="-16233.2246" y2="-6665.8047" gradientTransform="rotate(180 -2144.42 233.682) scale(.5263)"><stop offset="0" stop-color="#2075BC"/><stop offset="1" stop-color="#804099"/></linearGradient><path fill="url(#b)" d="M4270.328 3975.662c0 4.264-3.473 7.685-7.684 7.685-4.264 0-7.684-3.474-7.684-7.685 0-4.21 3.473-7.684 7.684-7.684 4.264.001 7.684 3.421 7.684 7.684z"/><path fill="#FFF" d="M4264.908 3981.137c0 1-1 1.789-2.264 1.789-1.263 0-2.263-.789-2.263-1.789s1-1.789 2.263-1.789c1.211-.001 2.264.789 2.264 1.789z"/><circle opacity=".5" fill="#FFF" cx="4300.224" cy="3975.663" r="3.316"/><linearGradient id="c" gradientUnits="userSpaceOnUse" x1="8000.9551" y1="-6660.7534" x2="8000.9551" y2="-6671.0513" gradientTransform="matrix(.5263 0 0 -.5263 89.216 467.364)"><stop offset="0" stop-color="#010101"/><stop offset=".9865" stop-color="#231F20"/></linearGradient><circle fill="url(#c)" cx="4300.224" cy="3975.663" r="2.684"/><circle opacity=".5" fill="#FFF" cx="4327.434" cy="3975.663" r="11.421"/><circle fill="#FEEF6E" cx="4327.434" cy="3975.662" r="10.947"/><radialGradient id="d" cx="8052.6572" cy="-6665.8047" r="19.8721" gradientTransform="matrix(.5263 0 0 -.5263 89.216 467.364)" gradientUnits="userSpaceOnUse"><stop offset="0" stop-color="#D2D3D4"/><stop offset=".103" stop-color="#F2F2F2"/><stop offset=".2271" stop-color="#D2D3D4"/><stop offset=".38" stop-color="#F2F2F2"/><stop offset=".5097" stop-color="#D2D3D4"/><stop offset=".6371" stop-color="#E7E7E7"/><stop offset=".7171" stop-color="#D2D3D4"/><stop offset=".8296" stop-color="#BDBEC0"/><stop offset=".9267" stop-color="#6E6F72"/></radialGradient><circle fill="url(#d)" cx="4327.434" cy="3975.663" r="10.474"/><path opacity=".5" fill="#FFF" d="M4428.591 4121.293c-3.79 0-7.263.58-10.368 1.686l-1.947.736-2.632 1.053c-1.737.631-3.263 1-4.685 1-1.105 0-2.525-.369-4.315-1.158l-2-.842-1.895-.79c-2.79-1.157-5.79-1.737-8.948-1.737-8.578 0-15.42 2.896-20.631 8.685-5.211 5.79-7.789 13.368-7.789 22.843 0 13.314 4.158 25.578 12.474 36.895 5.789 7.895 11.052 11.789 15.842 11.789 2.053 0 4.053-.422 6.053-1.211l2.526-1.053 2-.736c2.842-1 5.42-1.474 7.789-1.474 2.526 0 5.421.632 8.685 1.895l1.579.632c3.315 1.264 5.947 1.895 7.895 1.895 4.105 0 8.631-2.789 13.578-8.421 4.947-5.579 8.736-12.21 11.369-19.736-9.737-5-14.58-12.211-14.58-21.579 0-7.842 3.947-14.526 11.79-20.105-5.632-6.845-12.843-10.267-21.79-10.267zm-1.316-24.789c-5.316.736-9.947 3.369-13.947 7.789-4 4.422-6.053 9.158-6.053 14.211 0 .579.105 1.526.264 2.895 5.736 0 10.789-2.263 15.104-6.736s6.474-9.684 6.474-15.632c0-.632-.053-1.579-.158-2.789-.736.104-1.315.209-1.684.262z"/><path fill="#231F20" d="M4428.591 4119.557c-3.79 0-7.263.579-10.368 1.685l-1.947.737-2.632 1.053c-1.737.631-3.263.999-4.685.999-1.105 0-2.525-.368-4.315-1.157l-2-.843-1.895-.79c-2.79-1.157-5.79-1.736-8.948-1.736-8.578 0-15.42 2.895-20.631 8.685-5.211 5.789-7.789 13.368-7.789 22.842 0 13.315 4.158 25.579 12.474 36.895 5.789 7.895 11.052 11.79 15.842 11.79 2.053 0 4.053-.422 6.053-1.211l2.526-1.053 2-.736c2.842-1 5.42-1.475 7.789-1.475 2.526 0 5.421.633 8.685 1.896l1.579.632c3.315 1.263 5.947 1.895 7.895 1.895 4.105 0 8.631-2.789 13.578-8.421 4.947-5.579 8.736-12.211 11.369-19.737-9.737-5-14.58-12.211-14.58-21.631 0-7.842 3.947-14.526 11.79-20.105-5.632-6.792-12.843-10.214-21.79-10.214zm-1.316-24.789c-5.316.736-9.947 3.368-13.947 7.789s-6.053 9.158-6.053 14.211c0 .578.105 1.525.264 2.895 5.736 0 10.789-2.264 15.104-6.736 4.315-4.475 6.474-9.685 6.474-15.633 0-.631-.053-1.578-.158-2.789-.736.104-1.315.157-1.684.263z"/><path opacity=".5" fill="#FFF" d="M4367.96 4542.555c.053.947-.632 1.684-1.737 1.684-.947 0-1.631-.736-1.631-1.684s.684-1.685 1.684-1.685c1.052 0 1.684.737 1.684 1.685zm-3 19.157v-14.947h2.737v14.947h-2.737zM4372.275 4541.133c1.316-.21 3-.42 5.158-.42 2.631 0 4.579.631 5.842 1.736 1.158 1 1.842 2.474 1.842 4.368s-.578 3.368-1.578 4.421c-1.422 1.527-3.737 2.264-6.369 2.264-.789 0-1.525-.053-2.158-.211v8.316h-2.684v-20.475h-.053zm2.685 10.053c.579.158 1.315.211 2.21.211 3.264 0 5.211-1.578 5.211-4.421 0-2.737-1.947-4.053-4.895-4.053-1.158 0-2.053.104-2.525.21l-.001 8.053zM4388.434 4539.818h2.736v9.314h.053c.422-.789 1.105-1.473 1.947-1.895.79-.473 1.737-.789 2.79-.789 1.999 0 5.21 1.211 5.21 6.369v8.895h-2.736v-8.58c0-2.42-.895-4.421-3.475-4.421-1.736 0-3.157 1.21-3.631 2.737-.158.368-.211.789-.211 1.315v9h-2.736v-21.946h.053zM4419.064 4554.08c0 5.527-3.842 7.947-7.42 7.947-4.053 0-7.158-2.947-7.158-7.684 0-5 3.264-7.947 7.421-7.947 4.263.053 7.157 3.159 7.157 7.684zm-11.841.158c0 3.264 1.895 5.737 4.526 5.737 2.579 0 4.526-2.421 4.526-5.79 0-2.525-1.264-5.736-4.475-5.736-3.208 0-4.577 3-4.577 5.789zM4422.486 4550.817c0-1.526-.053-2.79-.105-4.053h2.42l.158 2.474h.053c.736-1.421 2.474-2.789 4.947-2.789 2.053 0 5.264 1.211 5.264 6.368v8.895h-2.737v-8.632c0-2.42-.896-4.421-3.474-4.421-1.789 0-3.158 1.263-3.631 2.79-.105.314-.211.789-.211 1.263v8.999h-2.737v-10.894h.053zM4441.117 4554.713c.053 3.684 2.422 5.157 5.105 5.157 1.947 0 3.105-.315 4.158-.79l.475 1.947c-.947.422-2.58.947-4.948.947-4.579 0-7.315-3-7.315-7.525 0-4.526 2.631-8.053 7-8.053 4.895 0 6.157 4.264 6.157 7.053 0 .579-.052 1-.104 1.264h-10.528zm7.947-1.948c.053-1.737-.684-4.421-3.789-4.421-2.737 0-3.947 2.525-4.158 4.421h7.947z"/><path fill="#231F20" d="M4367.96 4541.502c.053.947-.632 1.685-1.737 1.685-.947 0-1.631-.737-1.631-1.685s.684-1.684 1.684-1.684c1.052 0 1.684.737 1.684 1.684zm-3 19.105v-14.947h2.737v14.947h-2.737zM4372.275 4540.081c1.316-.211 3-.421 5.158-.421 2.631 0 4.579.631 5.842 1.736 1.158 1 1.842 2.475 1.842 4.369s-.578 3.367-1.578 4.42c-1.422 1.527-3.737 2.264-6.369 2.264-.789 0-1.525-.053-2.158-.211v8.316h-2.684v-20.474h-.053zm2.685 9.999c.579.158 1.315.211 2.21.211 3.264 0 5.211-1.578 5.211-4.421 0-2.737-1.947-4.053-4.895-4.053-1.158 0-2.053.105-2.525.211l-.001 8.052zM4388.434 4538.712h2.736v9.315h.053c.422-.789 1.105-1.473 1.947-1.895.79-.473 1.737-.789 2.79-.789 1.999 0 5.21 1.211 5.21 6.369v8.895h-2.736v-8.579c0-2.421-.895-4.421-3.475-4.421-1.736 0-3.157 1.21-3.631 2.736-.158.369-.211.789-.211 1.316v9h-2.736v-21.948h.053zM4419.064 4553.027c0 5.527-3.842 7.947-7.42 7.947-4.053 0-7.158-2.947-7.158-7.684 0-5 3.264-7.947 7.421-7.947 4.263.001 7.157 3.106 7.157 7.684zm-11.841.159c0 3.264 1.895 5.737 4.526 5.737 2.579 0 4.526-2.421 4.526-5.79 0-2.525-1.264-5.736-4.475-5.736-3.208-.001-4.577 2.947-4.577 5.789zM4422.486 4549.713c0-1.527-.053-2.79-.105-4.053h2.42l.158 2.473h.053c.736-1.42 2.474-2.789 4.947-2.789 2.053 0 5.264 1.211 5.264 6.369v8.895h-2.737v-8.633c0-2.42-.896-4.42-3.474-4.42-1.789 0-3.158 1.263-3.631 2.789-.105.315-.211.789-.211 1.264v8.999h-2.737v-10.894h.053zM4441.117 4553.66c.053 3.684 2.422 5.157 5.105 5.157 1.947 0 3.105-.315 4.158-.79l.475 1.948c-.947.421-2.58.947-4.948.947-4.579 0-7.315-3.001-7.315-7.526s2.631-8.053 7-8.053c4.895 0 6.157 4.264 6.157 7.053 0 .579-.052 1-.104 1.264h-10.528zm7.947-1.947c.053-1.737-.684-4.422-3.789-4.422-2.737 0-3.947 2.525-4.158 4.422h7.947z"/><ellipse transform="rotate(134.99 4323.208 3971.773)" opacity=".1" fill="#010101" cx="4323.167" cy="3971.796" rx="2.263" ry="4.421"/><ellipse transform="rotate(-45.004 4331.67 3971.488)" opacity=".1" fill="#010101" cx="4331.88" cy="3971.711" rx="4.421" ry="2.263"/><ellipse transform="rotate(135 4323.107 3979.914)" opacity=".1" fill="#010101" cx="4323.079" cy="3979.903" rx="4.421" ry="2.263"/><ellipse transform="rotate(135 4331.713 3979.908)" opacity=".1" fill="#010101" cx="4331.685" cy="3979.897" rx="2.263" ry="4.42"/><g><linearGradient id="e" gradientUnits="userSpaceOnUse" x1="532.3567" y1="883.4951" x2="654.3567" y2="883.4951" gradientTransform="matrix(.5263 0 0 -.5263 89.216 467.364)"><stop offset=".0216" stop-color="#231F20"/><stop offset=".1012" stop-color="#FFF"/><stop offset=".1795" stop-color="#010101"/><stop offset=".5" stop-color="#F1F1F2"/><stop offset=".7985" stop-color="#010101"/><stop offset=".8949" stop-color="#FFF"/><stop offset=".9771" stop-color="#231F20"/></linearGradient><path fill="url(#e)" d="M431.56 0h-59.42l-2.737 1.579v3.158h64.21V1.579"/><linearGradient id="f" gradientUnits="userSpaceOnUse" x1="532.2571" y1="886.4951" x2="654.2551" y2="886.4951" gradientTransform="matrix(.5263 0 0 -.5263 89.216 467.364)"><stop offset=".0216" stop-color="#A8A7AC"/><stop offset=".1012" stop-color="#FFF"/><stop offset=".1795" stop-color="#A8A7AC"/><stop offset=".7985" stop-color="#A8A7AC"/><stop offset=".8949" stop-color="#FFF"/><stop offset=".9771" stop-color="#A8A7AC"/></linearGradient><path fill="url(#f)" d="M372.14 0h59.368l2.052 1.579h-64.21L372.14 0z"/><linearGradient id="g" gradientUnits="userSpaceOnUse" x1="20.2566" y1="586.9951" x2="20.2566" y2="659.9941" gradientTransform="matrix(.5263 0 0 -.5263 89.216 467.364)"><stop offset=".0216" stop-color="#231F20"/><stop offset=".1012" stop-color="#FFF"/><stop offset=".1795" stop-color="#010101"/><stop offset=".5" stop-color="#F1F1F2"/><stop offset=".7985" stop-color="#010101"/><stop offset=".8949" stop-color="#FFF"/><stop offset=".9771" stop-color="#231F20"/></linearGradient><path fill="url(#g)" d="M99.088 120c-.684.684-1.157 1.158-1.578 1.579v35.263c.526.526.895.895 1.578 1.579h3.158V120h-3.158z"/><linearGradient id="h" gradientUnits="userSpaceOnUse" x1="17.2566" y1="586.9951" x2="17.2566" y2="659.9941" gradientTransform="matrix(.5263 0 0 -.5263 89.216 467.364)"><stop offset=".0216" stop-color="#A8A7AC"/><stop offset=".1012" stop-color="#FFF"/><stop offset=".1795" stop-color="#A8A7AC"/><stop offset=".7985" stop-color="#A8A7AC"/><stop offset=".8949" stop-color="#FFF"/><stop offset=".9771" stop-color="#A8A7AC"/></linearGradient><path fill="url(#h)" d="M99.088 158.42c-.684-.684-1.052-1.052-1.578-1.579v-35.263c.421-.421.895-.895 1.578-1.579v38.421z"/><linearGradient id="i" gradientUnits="userSpaceOnUse" x1="20.2566" y1="452.9941" x2="20.2566" y2="508.9941" gradientTransform="matrix(.5263 0 0 -.5263 89.216 467.364)"><stop offset=".0216" stop-color="#231F20"/><stop offset=".1012" stop-color="#FFF"/><stop offset=".1795" stop-color="#010101"/><stop offset=".5" stop-color="#F1F1F2"/><stop offset=".7985" stop-color="#010101"/><stop offset=".8949" stop-color="#FFF"/><stop offset=".9771" stop-color="#231F20"/></linearGradient><path fill="url(#i)" d="M99.088 199.473c-.684.684-1.157 1.158-1.578 1.579v26.315c.526.526.895.895 1.578 1.579h3.158v-29.474h-3.158z"/><linearGradient id="j" gradientUnits="userSpaceOnUse" x1="17.2566" y1="452.9941" x2="17.2566" y2="508.9941" gradientTransform="matrix(.5263 0 0 -.5263 89.216 467.364)"><stop offset=".0216" stop-color="#A8A7AC"/><stop offset=".1012" stop-color="#FFF"/><stop offset=".1795" stop-color="#A8A7AC"/><stop offset=".7985" stop-color="#A8A7AC"/><stop offset=".8949" stop-color="#FFF"/><stop offset=".9771" stop-color="#A8A7AC"/></linearGradient><path fill="url(#j)" d="M99.088 228.946c-.684-.685-1.052-1.053-1.578-1.579v-26.315c.421-.421.895-.895 1.578-1.579v29.473z"/><linearGradient id="k" gradientUnits="userSpaceOnUse" x1="20.2566" y1="342.9946" x2="20.2566" y2="398.9946" gradientTransform="matrix(.5263 0 0 -.5263 89.216 467.364)"><stop offset=".0216" stop-color="#231F20"/><stop offset=".1012" stop-color="#FFF"/><stop offset=".1795" stop-color="#010101"/><stop offset=".5" stop-color="#F1F1F2"/><stop offset=".7985" stop-color="#010101"/><stop offset=".8949" stop-color="#FFF"/><stop offset=".9771" stop-color="#231F20"/></linearGradient><path fill="url(#k)" d="M99.088 257.367c-.684.684-1.157 1.158-1.578 1.579v26.316c.526.526.895.895 1.578 1.579h3.158v-29.474h-3.158z"/><linearGradient id="l" gradientUnits="userSpaceOnUse" x1="17.2566" y1="342.9946" x2="17.2566" y2="398.9946" gradientTransform="matrix(.5263 0 0 -.5263 89.216 467.364)"><stop offset=".0216" stop-color="#A8A7AC"/><stop offset=".1012" stop-color="#FFF"/><stop offset=".1795" stop-color="#A8A7AC"/><stop offset=".7985" stop-color="#A8A7AC"/><stop offset=".8949" stop-color="#FFF"/><stop offset=".9771" stop-color="#A8A7AC"/></linearGradient><path fill="url(#l)" d="M99.088 286.841c-.684-.685-1.052-1.053-1.578-1.579v-26.316c.421-.421.895-.895 1.578-1.579v29.474z"/><linearGradient id="m" gradientUnits="userSpaceOnUse" x1="22.2576" y1="84.3457" x2="776.1584" y2="84.3457" gradientTransform="matrix(.5263 0 0 -.5263 89.216 467.364)"><stop offset="0" stop-color="#F1F1F2"/><stop offset=".1" stop-color="#010101"/><stop offset=".4873" stop-color="#F1F1F2"/><stop offset=".9" stop-color="#010101"/><stop offset="1" stop-color="#F1F1F2"/></linearGradient><path fill="url(#m)" d="M480.507 21.263C469.35 10.105 454.56 4 438.771 4H159.93c-15.736 0-30.578 6.105-41.736 17.263C107.088 32.421 100.931 47.21 100.931 63v719.997c0 15.736 6.157 30.578 17.263 41.684 11.158 11.158 25.947 17.263 41.736 17.263h278.788c15.737 0 30.579-6.157 41.736-17.263 11.158-11.158 17.264-25.947 17.264-41.684V63c.053-15.79-6.105-30.579-17.211-41.737z"/><g><path fill="#808184" d="M438.771 8.737H159.93c-29.947 0-54.263 24.315-54.263 54.21v719.996c0 29.895 24.368 54.21 54.263 54.21h278.788c29.947 0 54.263-24.315 54.263-54.21V62.947c.052-29.842-24.316-54.21-54.21-54.21z"/><path fill="#FFF" d="M491.454 782.943c0 29.053-23.578 52.631-52.684 52.631H159.93c-29.104 0-52.684-23.578-52.684-52.631V62.947c0-29.053 23.579-52.631 52.684-52.631h278.788c29.105 0 52.684 23.579 52.684 52.631v719.996h.052z"/></g><linearGradient id="n" gradientUnits="userSpaceOnUse" x1="399.2571" y1="648.7715" x2="399.257" y2="-487.2275" gradientTransform="matrix(.5263 0 0 -.5263 89.216 467.364)"><stop offset="0" stop-color="#67308F"/><stop offset="1" stop-color="#D91F5D"/></linearGradient><path fill="url(#n)" d="M130.931 125h336.84v597.891h-336.84V125z"/><linearGradient id="o" gradientUnits="userSpaceOnUse" x1="489.8538" y1="916.8857" x2="558.8607" y2="445.8381" gradientTransform="matrix(.5263 0 0 -.5263 89.216 467.364)"><stop offset="0" stop-color="#FFF"/><stop offset="1" stop-color="#FFF" stop-opacity="0"/></linearGradient><path opacity=".1" fill="url(#o)" d="M438.771 10.316H217.194l235.893 823.311c22.158-6.21 38.421-26.579 38.421-50.684V62.947c-.054-29.052-23.632-52.631-52.737-52.631z"/><path opacity=".5" fill="#231F20" d="M467.771 125v597.891h-336.84V125h336.84m0-2.632h-336.84c-1.474 0-2.632 1.158-2.632 2.632v597.891c0 1.474 1.158 2.632 2.632 2.632h336.84c1.474 0 2.632-1.158 2.632-2.632V125c0-1.475-1.159-2.632-2.632-2.632z"/><g fill="#F1F1F2"><path d="M100.931 76.421h6.315v6.315h-6.315zM491.454 76.421h6.316v6.315h-6.316zM100.931 763.785h6.315v6.316h-6.315zM491.454 763.785h6.316v6.316h-6.316z"/></g><g><linearGradient id="p" gradientUnits="userSpaceOnUse" x1="325.0579" y1="-591.3042" x2="465.0559" y2="-591.3042" gradientTransform="matrix(.5263 0 0 -.5263 89.216 467.364)"><stop offset=".0216" stop-color="#727074"/><stop offset=".1012" stop-color="#FFF"/><stop offset=".1795" stop-color="#727074"/><stop offset=".7985" stop-color="#727074"/><stop offset=".8949" stop-color="#FFF"/><stop offset=".9771" stop-color="#727074"/></linearGradient><path fill="url(#p)" d="M297.14 741.732c-20.368 0-36.842 16.474-36.842 36.843 0 20.368 16.474 36.842 36.842 36.842s36.842-16.474 36.842-36.842c0-20.369-16.527-36.843-36.842-36.843zm-.053 69.474c-18 0-32.631-14.632-32.631-32.631 0-18 14.631-32.632 32.631-32.632s32.632 14.632 32.632 32.632c0 17.999-14.579 32.631-32.632 32.631z"/></g><g><path fill="#F2F2F2" d="M333.982 89.579c0 4.368-3.526 7.895-7.895 7.895h-57.895c-4.368 0-7.895-3.526-7.895-7.895s3.526-7.895 7.895-7.895h57.895c4.316 0 7.895 3.526 7.895 7.895z"/><path opacity=".1" fill="#0F0F10" d="M333.982 89.052c0 4.368-3.526 7.895-7.895 7.895h-57.895c-4.368 0-7.895-3.526-7.895-7.895s3.526-7.895 7.895-7.895h57.895c4.316 0 7.895 3.527 7.895 7.895z"/><linearGradient id="q" gradientUnits="userSpaceOnUse" x1="341.2659" y1="710.6836" x2="410.879" y2="704.0284" gradientTransform="matrix(.5263 0 0 -.5263 89.216 467.364)"><stop offset="0" stop-color="#FFF"/><stop offset="1" stop-opacity="0"/></linearGradient><path opacity=".2" fill="url(#q)" d="M266.351 95.104c-.421.316-.947.685-1.474 1.158 1 .474 2.105.737 3.315.737h49.263c-.421-.21-.842-.421-1.21-.579-2.158-1.052-4.316-2.052-6.579-2.79-.264-.105-.579-.21-.842-.263h-39.211c-1.209.422-2.262 1.001-3.262 1.737z"/><linearGradient id="r" gradientUnits="userSpaceOnUse" x1="447.1272" y1="708.0459" x2="459.7502" y2="708.0459" gradientTransform="matrix(.5263 0 0 -.5263 89.216 467.364)"><stop offset="0" stop-opacity="0"/><stop offset="1" stop-color="#FFF"/></linearGradient><path opacity=".2" fill="url(#r)" d="M330.14 94.052c-.158-.158-.843-.842-1.632-1.579-.685.474-1.526.79-2.421.79h-1.474c.105 1.21.474 2.474.895 3.684h.579c1.947 0 3.736-.737 5.105-1.895-.369-.316-.737-.632-1.052-1z"/><path fill="#010101" d="M326.087 84.842h-57.895c-2.315 0-4.21 1.895-4.21 4.21s1.895 4.21 4.21 4.21H326.087c.895 0 1.736-.316 2.421-.79 1.053-.79 1.789-2 1.789-3.421 0-2.315-1.894-4.209-4.21-4.209z"/></g><g><circle opacity=".2" fill="#FFF" cx="297.14" cy="52.842" r="7.474"/><linearGradient id="s" gradientUnits="userSpaceOnUse" x1="395.0569" y1="802.3027" x2="395.0569" y2="774.6972" gradientTransform="matrix(.5263 0 0 -.5263 89.216 467.364)"><stop offset="0" stop-color="#010101"/><stop offset="1" stop-color="#231F20"/></linearGradient><circle fill="url(#s)" cx="297.14" cy="52.421" r="7.474"/><circle fill="#2BACE2" cx="297.14" cy="52.421" r="3.21"/><linearGradient id="t" gradientUnits="userSpaceOnUse" x1="390.7913" y1="788.3945" x2="399.2253" y2="788.3945" gradientTransform="matrix(.5263 0 0 -.5263 89.216 467.364)"><stop offset="0" stop-color="#2075BC"/><stop offset="1" stop-color="#922A8E"/></linearGradient><circle fill="url(#t)" cx="297.14" cy="52.421" r="2.21"/><ellipse fill="#FFF" cx="297.14" cy="51.368" rx=".947" ry=".632"/></g><path opacity=".5" fill="#0F0F10" d="M241.193 84.315c2.632 0 4.737 2.105 4.737 4.737 0 2.631-2.105 4.737-4.737 4.737-2.631 0-4.736-2.105-4.736-4.737-.001-2.632 2.105-4.737 4.736-4.737z"/></g></svg>